<svg xmlns="http://www.w3.org/2000/svg" viewBox="0 0 48 48" fill="none" aria-hidden="true">
<defs><linearGradient id="it-b" x1="0" y1="0" x2="1" y2="0"><stop offset="0" stop-color="var(--ico-light,#E7D7A6)" stop-opacity="0.95"/><stop offset="1" stop-color="var(--ico-main,#C79A4A)" stop-opacity="0.12"/></linearGradient></defs><path d="M21.76 29.52 L40.96 39.12 L26.24 46.48 L7.04 36.88 Z" fill="var(--ico-main,#C79A4A)" opacity="0.1"/>
<line x1="16.85" y1="31.97" x2="36.05" y2="41.57" stroke="var(--ico-main,#C79A4A)" stroke-width="0.8" stroke-linecap="round" opacity="0.22"/>
<line x1="11.95" y1="34.43" x2="31.15" y2="44.03" stroke="var(--ico-main,#C79A4A)" stroke-width="0.8" stroke-linecap="round" opacity="0.22"/>
<line x1="28.16" y1="32.72" x2="13.44" y2="40.08" stroke="var(--ico-main,#C79A4A)" stroke-width="0.8" stroke-linecap="round" opacity="0.22"/>
<line x1="34.56" y1="35.92" x2="19.84" y2="43.28" stroke="var(--ico-main,#C79A4A)" stroke-width="0.8" stroke-linecap="round" opacity="0.22"/>
<path d="M21.76 29.52 L40.96 39.12 L26.24 46.48 L7.04 36.88 Z" fill="none" stroke="var(--ico-main,#C79A4A)" stroke-width="1" stroke-opacity="0.5"/>
<ellipse cx="24.0" cy="38.64" rx="9.5" ry="3.9" fill="#0B0D12" opacity="0.28"/>
<path d="M5.6 23.8 L5.6 27.8 L17.28 30.76 Z" fill="var(--ico-light,#E7D7A6)" opacity="0.65"/>
<path d="M28.54 31.169999999999998 L42.5 14.6 L42.5 17.4 L28.54 33.57 Z" fill="url(#it-b)"/>
<path d="M28.54 31.169999999999998 L42.5 22.6 L42.5 25.4 L28.54 33.57 Z" fill="url(#it-b)"/>
<path d="M28.54 31.169999999999998 L42.5 30.6 L42.5 33.4 L28.54 33.57 Z" fill="url(#it-b)"/>
<path d="M10.88 38.0 L24.0 44.56 L24.0 23.96 Z" fill="var(--ico-main,#C79A4A)"/>
<path d="M24.0 44.56 L37.12 38.0 L24.0 23.96 Z" fill="var(--ico-deep,#6E5528)"/>
<line x1="24.0" y1="44.56" x2="24.0" y2="23.96" stroke="var(--ico-light,#E7D7A6)" stroke-width="0.9" stroke-linecap="round" opacity="0.6"/>
<circle cx="43.6" cy="16.0" r="1.6" fill="var(--ico-light,#E7D7A6)" opacity="0.95"/>
<circle cx="43.6" cy="24.0" r="1.6" fill="var(--ico-light,#E7D7A6)" opacity="0.95"/>
<circle cx="43.6" cy="32.0" r="1.6" fill="var(--ico-light,#E7D7A6)" opacity="0.95"/>
<circle cx="24.0" cy="23.96" r="3.6" fill="var(--ico-light,#E7D7A6)" opacity="0.3"/>
</svg>