<svg xmlns="http://www.w3.org/2000/svg" viewBox="0 0 48 48" fill="none" aria-hidden="true">
<defs><radialGradient id="lv-s" cx="0.35" cy="0.3" r="1"><stop offset="0" stop-color="var(--ico-light,#E7D7A6)"/><stop offset="0.55" stop-color="var(--ico-main,#C79A4A)"/><stop offset="1" stop-color="var(--ico-deep,#6E5528)"/></radialGradient></defs><path d="M21.76 29.52 L40.96 39.12 L26.24 46.48 L7.04 36.88 Z" fill="var(--ico-main,#C79A4A)" opacity="0.1"/>
<line x1="16.85" y1="31.97" x2="36.05" y2="41.57" stroke="var(--ico-main,#C79A4A)" stroke-width="0.8" stroke-linecap="round" opacity="0.22"/>
<line x1="11.95" y1="34.43" x2="31.15" y2="44.03" stroke="var(--ico-main,#C79A4A)" stroke-width="0.8" stroke-linecap="round" opacity="0.22"/>
<line x1="28.16" y1="32.72" x2="13.44" y2="40.08" stroke="var(--ico-main,#C79A4A)" stroke-width="0.8" stroke-linecap="round" opacity="0.22"/>
<line x1="34.56" y1="35.92" x2="19.84" y2="43.28" stroke="var(--ico-main,#C79A4A)" stroke-width="0.8" stroke-linecap="round" opacity="0.22"/>
<path d="M21.76 29.52 L40.96 39.12 L26.24 46.48 L7.04 36.88 Z" fill="none" stroke="var(--ico-main,#C79A4A)" stroke-width="1" stroke-opacity="0.5"/>
<ellipse cx="24.0" cy="38.0" rx="12" ry="4.6" fill="#0B0D12" opacity="0.28"/>
<line x1="24.0" y1="37.48" x2="24.0" y2="20.84" stroke="var(--ico-ivory,#F4F1EA)" stroke-width="1.0" stroke-linecap="round" opacity="0.5"/>
<ellipse cx="24.0" cy="36.7" rx="11.0" ry="5.5" fill="none" stroke="var(--ico-main,#C79A4A)" stroke-width="1.9" opacity="0.55"/>
<ellipse cx="24.0" cy="36.2" rx="11.0" ry="5.5" fill="none" stroke="var(--ico-light,#E7D7A6)" stroke-width="0.8" opacity="0.33"/>
<ellipse cx="24.0" cy="31.76" rx="7.920000000000001" ry="3.9600000000000004" fill="none" stroke="var(--ico-main,#C79A4A)" stroke-width="1.9" opacity="0.75"/>
<ellipse cx="24.0" cy="31.26" rx="7.920000000000001" ry="3.9600000000000004" fill="none" stroke="var(--ico-light,#E7D7A6)" stroke-width="0.8" opacity="0.44999999999999996"/>
<ellipse cx="24.0" cy="26.82" rx="4.928000000000001" ry="2.4640000000000004" fill="none" stroke="var(--ico-main,#C79A4A)" stroke-width="1.9" opacity="1.0"/>
<ellipse cx="24.0" cy="26.32" rx="4.928000000000001" ry="2.4640000000000004" fill="none" stroke="var(--ico-light,#E7D7A6)" stroke-width="0.8" opacity="0.6"/>
<circle cx="24.0" cy="18.24" r="5.8" fill="var(--ico-main,#C79A4A)" opacity="0.16"/>
<circle cx="24.0" cy="18.24" r="2.6" fill="url(#lv-s)"/>
<circle cx="23.142" cy="17.381999999999998" r="0.78" fill="var(--ico-ivory,#F4F1EA)" opacity="0.85"/>
</svg>