<svg xmlns="http://www.w3.org/2000/svg" viewBox="0 0 48 48" fill="none" aria-hidden="true">
<defs><radialGradient id="rs-s" cx="0.35" cy="0.3" r="1"><stop offset="0" stop-color="var(--ico-light,#E7D7A6)"/><stop offset="0.55" stop-color="var(--ico-main,#C79A4A)"/><stop offset="1" stop-color="var(--ico-deep,#6E5528)"/></radialGradient></defs><path d="M21.76 29.52 L40.96 39.12 L26.24 46.48 L7.04 36.88 Z" fill="var(--ico-main,#C79A4A)" opacity="0.1"/>
<line x1="16.85" y1="31.97" x2="36.05" y2="41.57" stroke="var(--ico-main,#C79A4A)" stroke-width="0.8" stroke-linecap="round" opacity="0.22"/>
<line x1="11.95" y1="34.43" x2="31.15" y2="44.03" stroke="var(--ico-main,#C79A4A)" stroke-width="0.8" stroke-linecap="round" opacity="0.22"/>
<line x1="28.16" y1="32.72" x2="13.44" y2="40.08" stroke="var(--ico-main,#C79A4A)" stroke-width="0.8" stroke-linecap="round" opacity="0.22"/>
<line x1="34.56" y1="35.92" x2="19.84" y2="43.28" stroke="var(--ico-main,#C79A4A)" stroke-width="0.8" stroke-linecap="round" opacity="0.22"/>
<path d="M21.76 29.52 L40.96 39.12 L26.24 46.48 L7.04 36.88 Z" fill="none" stroke="var(--ico-main,#C79A4A)" stroke-width="1" stroke-opacity="0.5"/>
<ellipse cx="22.72" cy="38.32" rx="11" ry="4.4" fill="#0B0D12" opacity="0.28"/>
<path d="M13.44 37.2 L24.32 42.64 L24.32 39.91 L13.44 34.47 Z" fill="var(--ico-main,#C79A4A)"/>
<path d="M32.0 38.8 L24.32 42.64 L24.32 39.91 L32.0 36.07 Z" fill="var(--ico-deep,#6E5528)"/>
<path d="M21.12 30.63 L32.0 36.07 L24.32 39.91 L13.44 34.47 Z" fill="var(--ico-light,#E7D7A6)"/>
<line x1="32.0" y1="37.43" x2="24.32" y2="41.27" stroke="var(--ico-ivory,#F4F1EA)" stroke-width="0.7" stroke-linecap="round" opacity="0.55"/>
<path d="M15.68 34.47 L26.56 39.91 L26.56 37.18 L15.68 31.74 Z" fill="var(--ico-main,#C79A4A)" opacity="0.82"/>
<path d="M34.24 36.07 L26.56 39.91 L26.56 37.18 L34.24 33.34 Z" fill="var(--ico-deep,#6E5528)" opacity="0.82"/>
<path d="M23.36 27.9 L34.24 33.34 L26.56 37.18 L15.68 31.74 Z" fill="var(--ico-light,#E7D7A6)"/>
<line x1="34.24" y1="34.7" x2="26.56" y2="38.55" stroke="var(--ico-ivory,#F4F1EA)" stroke-width="0.7" stroke-linecap="round" opacity="0.55"/>
<path d="M13.44 32.22 L24.32 37.66 L24.32 34.93 L13.44 29.49 Z" fill="var(--ico-main,#C79A4A)"/>
<path d="M32.0 33.82 L24.32 37.66 L24.32 34.93 L32.0 31.09 Z" fill="var(--ico-deep,#6E5528)"/>
<path d="M21.12 25.65 L32.0 31.09 L24.32 34.93 L13.44 29.49 Z" fill="var(--ico-light,#E7D7A6)"/>
<line x1="32.0" y1="32.45" x2="24.32" y2="36.29" stroke="var(--ico-ivory,#F4F1EA)" stroke-width="0.7" stroke-linecap="round" opacity="0.55"/>
<line x1="27.24" y1="31.47" x2="29.339999999999996" y2="29.669999999999995" stroke="var(--ico-main,#C79A4A)" stroke-width="1.1" stroke-linecap="round" opacity="0.6" stroke-dasharray="2.6 2.4"/>
<circle cx="31.439999999999998" cy="27.769999999999996" r="5.6" fill="var(--ico-main,#C79A4A)" opacity="0.16"/>
<circle cx="31.439999999999998" cy="27.769999999999996" r="2.5" fill="url(#rs-s)"/>
<circle cx="30.615" cy="26.944999999999997" r="0.75" fill="var(--ico-ivory,#F4F1EA)" opacity="0.85"/>
</svg>