<svg xmlns="http://www.w3.org/2000/svg" viewBox="0 0 48 48" fill="none" aria-hidden="true">
<path d="M21.76 29.52 L40.96 39.12 L26.24 46.48 L7.04 36.88 Z" fill="var(--ico-main,#C79A4A)" opacity="0.1"/>
<line x1="16.85" y1="31.97" x2="36.05" y2="41.57" stroke="var(--ico-main,#C79A4A)" stroke-width="0.8" stroke-linecap="round" opacity="0.22"/>
<line x1="11.95" y1="34.43" x2="31.15" y2="44.03" stroke="var(--ico-main,#C79A4A)" stroke-width="0.8" stroke-linecap="round" opacity="0.22"/>
<line x1="28.16" y1="32.72" x2="13.44" y2="40.08" stroke="var(--ico-main,#C79A4A)" stroke-width="0.8" stroke-linecap="round" opacity="0.22"/>
<line x1="34.56" y1="35.92" x2="19.84" y2="43.28" stroke="var(--ico-main,#C79A4A)" stroke-width="0.8" stroke-linecap="round" opacity="0.22"/>
<path d="M21.76 29.52 L40.96 39.12 L26.24 46.48 L7.04 36.88 Z" fill="none" stroke="var(--ico-main,#C79A4A)" stroke-width="1" stroke-opacity="0.5"/>
<ellipse cx="23.36" cy="38.96" rx="10" ry="4" fill="#0B0D12" opacity="0.28"/>
<path d="M16.0 36.88 L26.24 42.0 L26.24 25.36 L16.0 20.24 Z" fill="var(--ico-main,#C79A4A)"/>
<path d="M32.0 39.12 L26.24 42.0 L26.24 25.36 L32.0 22.48 Z" fill="var(--ico-deep,#6E5528)"/>
<path d="M21.76 17.36 L32.0 22.48 L26.24 25.36 L16.0 20.24 Z" fill="var(--ico-light,#E7D7A6)"/>
<circle cx="21.12" cy="25.92" r="1.3" fill="var(--ico-ivory,#F4F1EA)" opacity="0.95"/>
<line x1="17.92" y1="27.57" x2="24.32" y2="30.77" stroke="var(--ico-ivory,#F4F1EA)" stroke-width="1.4" stroke-linecap="round" opacity="0.75"/>
<line x1="17.92" y1="30.43" x2="24.32" y2="33.63" stroke="var(--ico-ivory,#F4F1EA)" stroke-width="1.4" stroke-linecap="round" opacity="0.75"/>
<line x1="21.76" y1="17.36" x2="32.0" y2="22.48" stroke="var(--ico-light,#E7D7A6)" stroke-width="1.0" stroke-linecap="round" opacity="0.7"/>
</svg>