<svg xmlns="http://www.w3.org/2000/svg" viewBox="0 0 48 48" fill="none" aria-hidden="true">
<defs><radialGradient id="ss-a" cx="0.35" cy="0.3" r="1"><stop offset="0" stop-color="var(--ico-light,#E7D7A6)"/><stop offset="0.62" stop-color="var(--ico-main,#C79A4A)"/><stop offset="1" stop-color="var(--ico-deep,#6E5528)"/></radialGradient></defs><path d="M21.76 29.52 L40.96 39.12 L26.24 46.48 L7.04 36.88 Z" fill="var(--ico-main,#C79A4A)" opacity="0.1"/>
<line x1="16.85" y1="31.97" x2="36.05" y2="41.57" stroke="var(--ico-main,#C79A4A)" stroke-width="0.8" stroke-linecap="round" opacity="0.22"/>
<line x1="11.95" y1="34.43" x2="31.15" y2="44.03" stroke="var(--ico-main,#C79A4A)" stroke-width="0.8" stroke-linecap="round" opacity="0.22"/>
<line x1="28.16" y1="32.72" x2="13.44" y2="40.08" stroke="var(--ico-main,#C79A4A)" stroke-width="0.8" stroke-linecap="round" opacity="0.22"/>
<line x1="34.56" y1="35.92" x2="19.84" y2="43.28" stroke="var(--ico-main,#C79A4A)" stroke-width="0.8" stroke-linecap="round" opacity="0.22"/>
<path d="M21.76 29.52 L40.96 39.12 L26.24 46.48 L7.04 36.88 Z" fill="none" stroke="var(--ico-main,#C79A4A)" stroke-width="1" stroke-opacity="0.5"/>
<ellipse cx="20.8" cy="37.84" rx="11.4" ry="4.8" fill="#0B0D12" opacity="0.28"/>
<path d="M9.8 34.98 A11.0 5.5 0 0 0 31.8 34.98 L31.8 38.18 A11.0 5.5 0 0 1 9.8 38.18 Z" fill="var(--ico-deep,#6E5528)"/>
<ellipse cx="20.8" cy="34.98" rx="11.0" ry="5.5" fill="url(#ss-a)"/>
<ellipse cx="25.0" cy="34.18" rx="3.5" ry="1.5" fill="#0B0D12" opacity="0.12"/>
<ellipse cx="25.0" cy="29.379999999999995" rx="8.6" ry="4.3" fill="var(--ico-light,#E7D7A6)" opacity="0.36"/>
<ellipse cx="25.0" cy="29.379999999999995" rx="8.6" ry="4.3" fill="none" stroke="var(--ico-ivory,#F4F1EA)" stroke-width="1.5" opacity="0.9" stroke-dasharray="4 3.4"/>
<ellipse cx="22.900000000000002" cy="33.57999999999999" rx="3.6" ry="1.8" fill="var(--ico-ivory,#F4F1EA)" opacity="0.38"/>
<circle cx="22.900000000000002" cy="33.57999999999999" r="1.5" fill="var(--ico-ivory,#F4F1EA)" opacity="0.95"/>
</svg>