<svg xmlns="http://www.w3.org/2000/svg" viewBox="0 0 1600 900" preserveAspectRatio="xMidYMin slice" aria-hidden="true">
  <!-- ARCHRON · Ambient Observatory — ชั้นดาว (ivory คงที่) · ใช้เป็น background-image
       พิกัดต้องตรงกับ constellation-links.svg (ผืนเดียวกัน 1600×900) -->
  <g fill="#F4F1EA">
    <circle cx="128" cy="108" r="5" opacity=".5"/>
    <circle cx="256" cy="63" r="3" opacity=".35"/>
    <circle cx="384" cy="162" r="4" opacity=".45"/>
    <circle cx="528" cy="81" r="6" opacity=".6"/>
    <circle cx="656" cy="135" r="3" opacity=".3"/>
    <circle cx="832" cy="54" r="4.5" opacity=".5"/>
    <circle cx="976" cy="117" r="3" opacity=".35"/>
    <circle cx="1120" cy="72" r="5.5" opacity=".65"/>
    <circle cx="1264" cy="153" r="3.5" opacity=".4"/>
    <circle cx="1408" cy="90" r="4.5" opacity=".5"/>
    <circle cx="1504" cy="198" r="3" opacity=".3"/>
    <circle cx="192" cy="270" r="3" opacity=".3"/>
    <circle cx="448" cy="306" r="3.5" opacity=".35"/>
    <circle cx="752" cy="252" r="5" opacity=".45"/>
    <circle cx="1056" cy="288" r="3" opacity=".3"/>
    <circle cx="1344" cy="324" r="4" opacity=".4"/>
    <circle cx="96" cy="468" r="3" opacity=".25"/>
    <circle cx="352" cy="522" r="4" opacity=".3"/>
    <circle cx="880" cy="450" r="3" opacity=".25"/>
    <circle cx="1200" cy="495" r="3.5" opacity=".3"/>
    <circle cx="1472" cy="540" r="3" opacity=".25"/>
    <circle cx="608" cy="594" r="3" opacity=".2"/>
    <circle cx="1008" cy="648" r="3" opacity=".2"/>
    <circle cx="240" cy="720" r="3.5" opacity=".2"/>
  </g>
</svg>
