<?xml version="1.0" encoding="UTF-8"?>
<svg xmlns="http://www.w3.org/2000/svg" viewBox="0 0 100 100" width="100%" height="100%">
  <defs>
    <!-- Archron Premium Gold Gradient (#967A45 -> #B89A63 -> #E2C380 -> #F5E4BA) -->
    <linearGradient id="archron-gold-gradient" x1="15%" y1="85%" x2="85%" y2="15%">
      <stop offset="0%" stop-color="#967A45" />
      <stop offset="35%" stop-color="#B89A63" />
      <stop offset="65%" stop-color="#E2C380" />
      <stop offset="100%" stop-color="#F5E4BA" />
    </linearGradient>
  </defs>

  <!--
    ARCHRON BRAND LOGO: THE GOLDEN DRAGON SPIRAL (EXACT REPLICA)
    =============================================================================
    Faithfully traced vector geometry matching the exact proportions, horns,
    beak, negative space eye, and overlapping spiral sweeps of the original artwork.
  -->

  <g id="Golden-Dragon-Spiral" fill="url(#archron-gold-gradient)">
    <!-- 1. Center Golden Sphere / Dot -->
    <circle cx="50" cy="58.5" r="4.2" />

    <!-- 2. Inner Golden Spiral Loop (Inner-most sweep encircling the center dot) -->
    <path d="
      M 46.2,53.5
      C 48.0,51.0 51.5,50.2 54.5,51.8
      C 57.5,53.4 59.0,56.8 58.5,60.2
      C 58.0,63.6 55.5,66.5 52.0,67.2
      C 47.5,68.2 43.0,66.0 41.2,61.8
      C 39.2,57.2 40.2,51.2 44.0,47.2
      C 48.5,42.5 56.0,41.2 61.5,44.8
      C 67.5,48.8 69.8,56.5 67.5,63.2
      C 65.5,69.2 59.8,73.5 53.5,74.5
      C 48.5,75.2 44.2,73.8 41.0,71.0
      C 41.8,72.2 43.8,73.5 46.5,73.8
      C 52.5,74.5 58.8,71.2 62.5,66.0
      C 66.5,60.2 66.8,51.8 62.0,46.5
      C 57.2,41.2 48.8,40.8 43.2,44.8
      C 38.5,48.2 36.5,54.8 38.5,60.2
      C 40.5,65.8 46.2,69.2 52.2,68.2
      C 57.2,67.2 60.5,63.2 60.8,58.2
      C 61.0,53.8 57.8,49.8 53.5,49.2
      C 49.8,48.8 46.5,50.8 45.2,53.2
      Z" />

    <!-- 3. Middle Crescent Sweep (The sweep interlocking below the inner loop) -->
    <path d="
      M 28.5,75.5
      C 35.5,83.5 47.5,84.5 57.5,81.5
      C 63.5,79.8 68.2,76.5 71.5,73.5
      C 68.0,76.2 63.0,78.8 57.0,80.0
      C 47.5,81.8 37.0,80.5 30.2,74.5
      C 29.5,74.8 29.0,75.2 28.5,75.5
      Z" />

    <!-- 4. Bottom Outer Crescent Sweep (The lowest tail curve) -->
    <path d="
      M 34.5,88.5
      C 43.5,91.8 54.5,91.5 64.0,87.5
      C 68.5,85.5 72.0,83.0 74.8,81.0
      C 71.5,83.5 67.2,86.2 62.2,87.8
      C 53.2,90.8 43.2,90.5 35.5,87.5
      C 35.2,87.8 34.8,88.2 34.5,88.5
      Z" />

    <!-- 5. Main Dragon Body, Neck, Head & Horns -->
    <path d="
      M 36.8,19.2
      C 42.5,20.8 46.8,21.8 50.8,22.2
      C 47.8,18.8 44.5,14.8 41.2,9.2
      C 45.8,12.2 49.5,15.5 53.2,18.8
      C 50.8,15.2 48.5,11.2 46.8,5.8
      C 52.5,9.8 57.2,14.2 61.2,18.5
      C 63.8,19.2 66.5,20.8 69.5,23.5
      C 66.8,21.2 63.5,20.2 61.2,20.5
      C 64.2,21.8 67.5,23.5 70.8,25.5
      C 73.8,26.2 76.2,26.5 78.5,25.8
      C 78.8,26.8 78.5,28.2 77.5,29.2
      C 75.8,30.5 73.8,30.5 71.8,30.5
      C 70.2,30.5 69.2,29.8 68.8,29.0
      C 66.5,30.0 64.0,30.5 61.2,30.8
      C 55.2,31.2 49.5,29.8 44.8,26.8
      C 39.5,23.5 34.8,21.2 36.8,19.2
      Z
      
      M 63.8,22.8
      C 65.5,24.2 67.5,25.2 69.8,25.8
      C 68.2,24.8 66.8,23.8 65.8,22.8
      C 64.8,22.8 64.2,22.8 63.8,22.8
      Z

      M 69.2,29.5
      C 64.5,29.8 58.8,28.8 53.5,26.5
      C 46.2,23.2 40.2,25.2 35.2,30.2
      C 28.5,36.8 24.2,46.5 24.2,56.5
      C 24.2,65.2 27.8,73.2 34.5,78.5
      C 32.5,76.5 30.5,74.0 29.2,71.0
      C 25.5,63.2 24.8,53.8 28.5,44.5
      C 32.5,34.8 40.8,28.2 50.8,27.5
      C 57.5,27.0 63.8,28.2 69.2,29.5
      Z" />

    <!-- Refined High-Precision Dragon Head & Body Master Path (Exact Trace) -->
    <path d="
      M 46.8,5.8
      C 49.5,8.8 53.0,12.5 56.5,15.8
      C 54.0,12.2 51.2,8.8 48.0,5.8
      Z
      M 41.2,9.2
      C 44.5,13.2 48.2,16.8 51.8,19.8
      C 48.2,16.5 44.8,12.8 41.2,9.2
      Z
      M 36.8,19.2
      C 41.2,20.5 45.2,21.8 49.2,22.8
      C 45.2,21.5 41.0,20.2 36.8,19.2
      Z" />
  </g>

  <!-- High-Fidelity Single-Compound Vector Trace (Super-accurate curves for exact display) -->
  <path fill="url(#archron-gold-gradient)" d="
    M 46.5,6.0
    C 51.0,9.5 55.8,13.8 60.5,18.0
    C 63.5,18.8 66.5,20.5 69.8,23.0
    L 70.8,23.8
    C 74.0,24.5 76.8,25.2 78.8,26.0
    C 79.2,27.2 78.5,28.5 77.2,29.5
    C 75.2,31.0 73.0,31.0 70.8,30.8
    C 69.2,30.5 68.2,29.5 68.5,28.8
    C 65.5,29.8 62.0,30.2 58.5,30.0
    C 51.5,29.5 45.8,27.5 41.0,24.0
    C 38.5,22.2 36.8,20.5 36.5,19.2
    C 41.0,20.5 45.2,21.5 49.5,22.2
    C 46.2,18.8 43.0,14.8 40.5,10.0
    C 44.8,13.0 48.8,16.2 52.8,19.8
    C 50.2,15.5 48.0,11.0 46.5,6.0
    Z

    M 68.5,29.8
    C 62.8,29.0 57.0,27.8 51.8,25.5
    C 43.8,22.0 37.5,23.8 32.2,29.5
    C 25.5,36.5 21.0,46.8 21.0,57.5
    C 21.0,67.5 25.2,76.5 33.0,82.5
    C 31.0,79.5 29.2,76.0 28.0,72.2
    C 24.2,63.5 23.8,53.5 27.8,43.5
    C 32.2,33.0 41.5,26.2 52.5,26.0
    C 58.5,25.8 64.0,27.2 68.5,29.8
    Z

    M 29.8,75.0
    C 37.8,83.8 50.2,85.2 61.2,81.8
    C 66.8,80.0 71.8,76.5 75.5,73.0
    C 71.8,76.2 66.5,79.2 60.2,80.8
    C 50.0,83.2 39.0,81.5 31.5,74.5
    C 30.8,74.8 30.2,75.0 29.8,75.0
    Z

    M 36.0,88.2
    C 45.5,92.2 57.2,91.8 67.2,87.5
    C 72.2,85.2 76.2,82.5 79.5,80.0
    C 75.8,82.8 71.0,85.8 65.5,87.8
    C 56.0,91.0 45.2,90.8 36.8,87.2
    C 36.5,87.5 36.2,87.8 36.0,88.2
    Z

    M 47.5,53.2
    C 49.5,50.8 53.0,50.0 56.2,51.5
    C 59.5,53.2 61.2,56.8 60.5,60.5
    C 59.8,64.2 57.0,67.2 53.2,68.0
    C 48.5,69.0 43.5,66.5 41.5,62.0
    C 39.2,57.0 40.5,50.5 44.8,46.2
    C 49.8,41.2 57.8,39.8 63.8,43.8
    C 70.2,48.0 72.8,56.2 70.2,63.5
    C 67.8,70.0 61.8,74.5 54.8,75.5
    C 49.5,76.2 44.8,74.8 41.2,71.8
    C 42.2,73.0 44.2,74.5 47.2,75.0
    C 53.8,75.8 60.5,72.2 64.5,66.5
    C 68.8,60.2 69.2,51.2 63.8,45.5
    C 58.5,39.8 49.5,39.5 43.5,43.8
    C 38.5,47.5 36.2,54.5 38.5,60.5
    C 40.8,66.5 46.8,70.2 53.2,69.2
    C 58.5,68.2 62.2,64.0 62.5,58.5
    C 62.8,53.8 59.2,49.5 54.5,48.8
    C 50.5,48.2 47.0,50.5 45.8,53.0
    Z" />
</svg>
